<?xml version="1.0" encoding="UTF-8" standalone="no"?>
<svg
   xmlns:dc="http://purl.org/dc/elements/1.1/"
   xmlns:cc="http://creativecommons.org/ns#"
   xmlns:rdf="http://www.w3.org/1999/02/22-rdf-syntax-ns#"
   xmlns:svg="http://www.w3.org/2000/svg"
   xmlns="http://www.w3.org/2000/svg"
   xmlns:sodipodi="http://sodipodi.sourceforge.net/DTD/sodipodi-0.dtd"
   xmlns:inkscape="http://www.inkscape.org/namespaces/inkscape"
   width="121.90556mm"
   height="44.140923mm"
   viewBox="0 0 121.90557 44.140923"
   version="1.1"
   id="svg1572"
   inkscape:version="1.0.1 (3bc2e813f5, 2020-09-07)"
   sodipodi:docname="logo.svg"
   inkscape:export-filename="/home/verri/Projects/uatlib/assets/logo.png"
   inkscape:export-xdpi="65.598991"
   inkscape:export-ydpi="65.598991">
  <defs
     id="defs1566" />
  <sodipodi:namedview
     id="base"
     pagecolor="#ffffff"
     bordercolor="#666666"
     borderopacity="1.0"
     inkscape:pageopacity="0.0"
     inkscape:pageshadow="2"
     inkscape:zoom="3.7222289"
     inkscape:cx="173.82058"
     inkscape:cy="86.500713"
     inkscape:document-units="mm"
     inkscape:current-layer="layer1"
     inkscape:document-rotation="0"
     showgrid="false"
     fit-margin-top="0"
     fit-margin-left="0"
     fit-margin-right="0"
     fit-margin-bottom="0"
     inkscape:window-width="1914"
     inkscape:window-height="1025"
     inkscape:window-x="3"
     inkscape:window-y="52"
     inkscape:window-maximized="1" />
  <metadata
     id="metadata1569">
    <rdf:RDF>
      <cc:Work
         rdf:about="">
        <dc:format>image/svg+xml</dc:format>
        <dc:type
           rdf:resource="http://purl.org/dc/dcmitype/StillImage" />
        <dc:title></dc:title>
      </cc:Work>
    </rdf:RDF>
  </metadata>
  <g
     inkscape:label="Layer 1"
     inkscape:groupmode="layer"
     id="layer1"
     transform="translate(-42.643112,-74.95289)">
    <path
       inkscape:connector-curvature="0"
       id="path939"
       d="m 43.156755,84.910098 h 6.998214 c 5.789984,17.354862 12.645606,17.304952 17.433007,0 h 6.935713 c -9.156603,26.647282 -22.83386,25.021162 -31.366934,0 z"
       style="fill:#000000;stroke:#000000;stroke-width:0.735042px;stroke-linecap:butt;stroke-linejoin:miter;stroke-opacity:1"
       sodipodi:nodetypes="ccccc" />
    <g
       id="g945"
       transform="matrix(2.6449876,0,0,2.6449876,-80.97373,-155.34382)">
      <path
         sodipodi:nodetypes="ccccc"
         inkscape:connector-curvature="0"
         id="path941"
         d="m 56.176711,98.160898 h 2.645833 c 3.370221,-5.357032 3.174577,-4.89108 6.590959,0 h 2.622211 c -6.023463,-7.851183 -5.835888,-9.079185 -11.859003,0 z"
         style="fill:#000000;stroke:#000000;stroke-width:0.264583px;stroke-linecap:butt;stroke-linejoin:miter;stroke-opacity:1" />
      <path
         sodipodi:nodetypes="ccsc"
         inkscape:connector-curvature="0"
         id="path943"
         d="m 65.94267,98.160897 h -5.433407 c 0.815698,-1.186316 2.322507,-1.40131 3.606494,-1.468283 0.675416,-0.03523 1.226742,0.586399 1.826913,1.468283 z"
         style="fill:#000000;stroke:#000000;stroke-width:0.264583px;stroke-linecap:butt;stroke-linejoin:miter;stroke-opacity:1" />
    </g>
    <path
       style="fill:#000000;stroke:#000000;stroke-width:0.699819px;stroke-linecap:butt;stroke-linejoin:miter;stroke-opacity:1"
       d="m 101.91087,118.09896 -2.457088,-6.55267 5.884488,-22.553984 -16.129239,-6.95326 -2.435187,-6.494161 23.968986,8.818278 1.93057,5.148518 z"
       id="path947"
       inkscape:connector-curvature="0"
       sodipodi:nodetypes="cccccccc" />
    <path
       sodipodi:nodetypes="cccccccc"
       inkscape:connector-curvature="0"
       id="path949"
       d="m 119.70051,75.94774 2.45712,6.552666 -5.88449,22.553974 16.12924,6.95328 2.43516,6.49416 -23.96896,-8.81829 -1.93057,-5.14852 z"
       style="fill:#000000;stroke:#000000;stroke-width:0.699819px;stroke-linecap:butt;stroke-linejoin:miter;stroke-opacity:1" />
    <g
       id="g974"
       transform="matrix(2.6448935,0.02230474,-0.02230474,2.6448935,-87.112986,-72.23181)">
      <path
         style="fill:#000000;stroke:#000000;stroke-width:0.214542px;stroke-linecap:butt;stroke-linejoin:miter;stroke-opacity:1"
         d="m 86.580884,62.559063 -0.09229,-0.987894 c 5.940046,-0.748571 4.829199,-1.655294 -0.229912,-2.460938 l -0.09147,-0.979082 c 12.533689,0.60382 12.174055,3.701925 0.413676,4.427914 z"
         id="path957"
         inkscape:connector-curvature="0"
         sodipodi:nodetypes="ccccc" />
      <path
         inkscape:connector-curvature="0"
         id="path959"
         d="m 86.903089,66.007901 -0.09229,-0.987896 c 5.897394,-1.507996 4.422766,-1.375657 -0.229912,-2.460942 l -0.09147,-0.979076 c 10.475688,0.742194 13.519053,4.681554 0.413675,4.427914 z"
         style="fill:#000000;stroke:#000000;stroke-width:0.214542px;stroke-linecap:butt;stroke-linejoin:miter;stroke-opacity:1"
         sodipodi:nodetypes="ccccc" />
      <path
         style="fill:#000000;stroke:#000000;stroke-width:0.214542px;stroke-linecap:butt;stroke-linejoin:miter;stroke-opacity:1"
         d="m 86.810796,65.020005 -0.229912,-2.460942 2.250431,-0.40211 c -1.087472,0.925498 -0.899147,1.99301 0.254371,3.167961 l -2.274885,-0.304909"
         id="path961"
         inkscape:connector-curvature="0"
         sodipodi:nodetypes="ccccc" />
    </g>
    <path
       style="fill:#000000;stroke:#000000;stroke-width:1.01425px;stroke-linecap:butt;stroke-linejoin:miter;stroke-opacity:1"
       d="m 137.14426,104.04101 -0.35443,-13.61255 -5.82299,-2.279855 c 1.34653,7.196387 2.04002,9.144482 -1.76098,15.755925 l 8.4177,0.57402"
       id="path969"
       inkscape:connector-curvature="0"
       sodipodi:nodetypes="ccccc" />
  </g>
</svg>
